<?xml version="1.0" encoding="UTF-8" standalone="no"?>
<!DOCTYPE svg PUBLIC "-//W3C//DTD SVG 1.0//EN" "http://www.w3.org/TR/2001/PR-SVG-20010719/DTD/svg10.dtd">
<svg width="38cm" height="9cm" viewBox="55 157 747 174" xmlns="http://www.w3.org/2000/svg" xmlns:xlink="http://www.w3.org/1999/xlink">
  <g>
    <rect style="fill: #ffffff" x="320" y="270" width="81.9" height="36"/>
    <rect style="fill: none; fill-opacity:0; stroke-width: 2; stroke: #000000" x="320" y="270" width="81.9" height="36"/>
    <text font-size="12.8" style="fill: #000000;text-anchor:middle;font-family:monospace;font-style:normal;font-weight:normal" x="360.95" y="292">Student</text>
  </g>
  <g>
    <rect style="fill: #ffffff" x="620" y="270" width="58.8" height="36"/>
    <rect style="fill: none; fill-opacity:0; stroke-width: 2; stroke: #000000" x="620" y="270" width="58.8" height="36"/>
    <text font-size="12.8" style="fill: #000000;text-anchor:middle;font-family:monospace;font-style:normal;font-weight:normal" x="649.4" y="292">Door</text>
  </g>
  <g>
    <polygon style="fill: #ffffff" points="459,288 502.1,262.14 545.2,288 502.1,313.86 "/>
    <polygon style="fill: none; fill-opacity:0; stroke-width: 2; stroke: #000000" points="459,288 502.1,262.14 545.2,288 502.1,313.86 "/>
    <text font-size="12.8" style="fill: #000000;text-anchor:end;font-family:monospace;font-style:normal;font-weight:normal" x="453" y="282">M</text>
    <text font-size="12.8" style="fill: #000000;text-anchor:start;font-family:monospace;font-style:normal;font-weight:normal" x="551.2" y="282">N</text>
    <text font-size="12.8" style="fill: #000000;text-anchor:middle;font-family:monospace;font-style:normal;font-weight:normal" x="502.1" y="292">Swipes</text>
  </g>
  <polyline style="fill: none; fill-opacity:0; stroke-width: 2; stroke: #000000" points="402.905,288 403.905,288 457.002,288 458.002,288 "/>
  <polyline style="fill: none; fill-opacity:0; stroke-width: 2; stroke: #000000" points="546.198,288 547.198,288 617.993,288 618.993,288 "/>
  <g>
    <ellipse style="fill: #ffffff" cx="168.4" cy="262.204" rx="112.4" ry="18"/>
    <ellipse style="fill: none; fill-opacity:0; stroke-width: 2; stroke: #000000" cx="168.4" cy="262.204" rx="112.4" ry="18"/>
    <text font-size="12.8" style="fill: #000000;text-anchor:middle;font-family:monospace;font-style:normal;font-weight:normal" x="168.4" y="266.204">Expected Graduation Year</text>
    <line style="fill: none; fill-opacity:0; stroke-width: 2; stroke: #000000" x1="76" y1="270.204" x2="260.8" y2="270.204"/>
  </g>
  <g>
    <ellipse style="fill: #ffffff" cx="195.45" cy="309.5" rx="85.45" ry="18"/>
    <ellipse style="fill: none; fill-opacity:0; stroke-width: 2; stroke: #000000" cx="195.45" cy="309.5" rx="85.45" ry="18"/>
    <text font-size="12.8" style="fill: #000000;text-anchor:middle;font-family:monospace;font-style:normal;font-weight:normal" x="195.45" y="313.5">Unique Identifier</text>
    <line style="fill: none; fill-opacity:0; stroke-width: 2; stroke: #000000" x1="130" y1="317.5" x2="260.9" y2="317.5"/>
  </g>
  <g>
    <ellipse style="fill: #ffffff" cx="456.967" cy="176.411" rx="35.4" ry="18"/>
    <ellipse style="fill: none; fill-opacity:0; stroke-width: 2; stroke: #000000" cx="456.967" cy="176.411" rx="35.4" ry="18"/>
    <text font-size="12.8" style="fill: #000000;text-anchor:middle;font-family:monospace;font-style:normal;font-weight:normal" x="456.967" y="180.411">Date</text>
  </g>
  <g>
    <ellipse style="fill: #ffffff" cx="536.029" cy="176.411" rx="35.4" ry="18"/>
    <ellipse style="fill: none; fill-opacity:0; stroke-width: 2; stroke: #000000" cx="536.029" cy="176.411" rx="35.4" ry="18"/>
    <text font-size="12.8" style="fill: #000000;text-anchor:middle;font-family:monospace;font-style:normal;font-weight:normal" x="536.029" y="180.411">Time</text>
  </g>
  <polyline style="fill: none; fill-opacity:0; stroke-width: 2; stroke: #000000" points="456.967,195.42 456.967,228.78 502.1,228.78 502.1,262.14 "/>
  <polyline style="fill: none; fill-opacity:0; stroke-width: 2; stroke: #000000" points="536.029,195.42 536.029,228.277 502.1,228.277 502.1,261.133 "/>
  <polyline style="fill: none; fill-opacity:0; stroke-width: 2; stroke: #000000" points="281.807,262.204 300.401,262.204 300.401,288 318.995,288 "/>
  <polyline style="fill: none; fill-opacity:0; stroke-width: 2; stroke: #000000" points="281.905,309.5 300.45,309.5 300.45,288 318.995,288 "/>
  <g>
    <ellipse style="fill: #ffffff" cx="605.383" cy="200.073" rx="43.1" ry="18"/>
    <ellipse style="fill: none; fill-opacity:0; stroke-width: 2; stroke: #000000" cx="605.383" cy="200.073" rx="43.1" ry="18"/>
    <text font-size="12.8" style="fill: #000000;text-anchor:middle;font-family:monospace;font-style:normal;font-weight:normal" x="605.383" y="204.073">Result</text>
  </g>
  <polyline style="fill: none; fill-opacity:0; stroke-width: 2; stroke: #000000" points="605.383,219.083 605.383,240.611 502.1,240.611 502.1,262.14 "/>
  <g>
    <ellipse style="fill: #ffffff" cx="765.4" cy="312.114" rx="35.4" ry="18"/>
    <ellipse style="fill: none; fill-opacity:0; stroke-width: 2; stroke: #000000" cx="765.4" cy="312.114" rx="35.4" ry="18"/>
    <text font-size="12.8" style="fill: #000000;text-anchor:middle;font-family:monospace;font-style:normal;font-weight:normal" x="765.4" y="316.114">Name</text>
  </g>
  <polyline style="fill: none; fill-opacity:0; stroke-width: 2; stroke: #000000" points="730,312.114 704.904,312.114 704.904,288 679.807,288 "/>
  <g>
    <ellipse style="fill: #ffffff" cx="397.871" cy="200.073" rx="27.7" ry="18"/>
    <ellipse style="fill: none; fill-opacity:0; stroke-width: 2; stroke: #000000" cx="397.871" cy="200.073" rx="27.7" ry="18"/>
    <text font-size="12.8" style="fill: #000000;text-anchor:middle;font-family:monospace;font-style:normal;font-weight:normal" x="397.871" y="204.073">ID</text>
    <line style="fill: none; fill-opacity:0; stroke-width: 2; stroke: #000000" x1="390.171" y1="208.073" x2="405.571" y2="208.073"/>
  </g>
  <polyline style="fill: none; fill-opacity:0; stroke-width: 2; stroke: #000000" points="397.871,219.083 397.871,240.611 502.1,240.611 502.1,262.14 "/>
  <g>
    <ellipse style="fill: #ffffff" cx="757.7" cy="268" rx="27.7" ry="18"/>
    <ellipse style="fill: none; fill-opacity:0; stroke-width: 2; stroke: #000000" cx="757.7" cy="268" rx="27.7" ry="18"/>
    <text font-size="12.8" style="fill: #000000;text-anchor:middle;font-family:monospace;font-style:normal;font-weight:normal" x="757.7" y="272">ID</text>
    <line style="fill: none; fill-opacity:0; stroke-width: 2; stroke: #000000" x1="750" y1="276" x2="765.4" y2="276"/>
  </g>
  <polyline style="fill: none; fill-opacity:0; stroke-width: 2; stroke: #000000" points="730,268 704.904,268 704.904,288 679.807,288 "/>
</svg>
