<?xml version="1.0" encoding="UTF-8" standalone="no"?>
<!DOCTYPE svg PUBLIC "-//W3C//DTD SVG 1.0//EN" "http://www.w3.org/TR/2001/PR-SVG-20010719/DTD/svg10.dtd">
<svg width="38cm" height="9cm" viewBox="55 157 747 174" xmlns="http://www.w3.org/2000/svg" xmlns:xlink="http://www.w3.org/1999/xlink">
  <g>
    <rect style="fill: #ffffff" x="320" y="270" width="81.9" height="36"/>
    <rect style="fill: none; fill-opacity:0; stroke-width: 2; stroke: #000000" x="320" y="270" width="81.9" height="36"/>
    <text font-size="12.8" style="fill: #000000;text-anchor:middle;font-family:monospace;font-style:normal;font-weight:normal" x="360.95" y="292">Student</text>
  </g>
  <g>
    <rect style="fill: #ffffff" x="620" y="270" width="58.8" height="36"/>
    <rect style="fill: none; fill-opacity:0; stroke-width: 2; stroke: #000000" x="620" y="270" width="58.8" height="36"/>
    <text font-size="12.8" style="fill: #000000;text-anchor:middle;font-family:monospace;font-style:normal;font-weight:normal" x="649.4" y="292">Door</text>
  </g>
  <g>
    <polygon style="fill: #ffffff" points="460,288 503.1,262.14 546.2,288 503.1,313.86 "/>
    <polygon style="fill: none; fill-opacity:0; stroke-width: 2; stroke: #000000" points="460,288 503.1,262.14 546.2,288 503.1,313.86 "/>
    <text font-size="12.8" style="fill: #000000;text-anchor:end;font-family:monospace;font-style:normal;font-weight:normal" x="454" y="282">M</text>
    <text font-size="12.8" style="fill: #000000;text-anchor:start;font-family:monospace;font-style:normal;font-weight:normal" x="552.2" y="282">N</text>
    <text font-size="12.8" style="fill: #000000;text-anchor:middle;font-family:monospace;font-style:normal;font-weight:normal" x="503.1" y="292">Swipes</text>
  </g>
  <polyline style="fill: none; fill-opacity:0; stroke-width: 2; stroke: #000000" points="402.905,288 403.905,288 458.002,288 459.002,288 "/>
  <polyline style="fill: none; fill-opacity:0; stroke-width: 2; stroke: #000000" points="547.198,288 548.198,288 617.993,288 618.993,288 "/>
  <g>
    <ellipse style="fill: #ffffff" cx="168.4" cy="262.204" rx="112.4" ry="18"/>
    <ellipse style="fill: none; fill-opacity:0; stroke-width: 2; stroke: #000000" cx="168.4" cy="262.204" rx="112.4" ry="18"/>
    <text font-size="12.8" style="fill: #000000;text-anchor:middle;font-family:monospace;font-style:normal;font-weight:normal" x="168.4" y="266.204">Expected Graduation Year</text>
    <line style="fill: none; fill-opacity:0; stroke-width: 2; stroke: #000000" x1="76" y1="270.204" x2="260.8" y2="270.204"/>
  </g>
  <g>
    <ellipse style="fill: #ffffff" cx="195.45" cy="309.5" rx="85.45" ry="18"/>
    <ellipse style="fill: none; fill-opacity:0; stroke-width: 2; stroke: #000000" cx="195.45" cy="309.5" rx="85.45" ry="18"/>
    <text font-size="12.8" style="fill: #000000;text-anchor:middle;font-family:monospace;font-style:normal;font-weight:normal" x="195.45" y="313.5">Unique Identifier</text>
    <line style="fill: none; fill-opacity:0; stroke-width: 2; stroke: #000000" x1="130" y1="317.5" x2="260.9" y2="317.5"/>
  </g>
  <g>
    <ellipse style="fill: #ffffff" cx="466.795" cy="176.411" rx="35.4" ry="18"/>
    <ellipse style="fill: none; fill-opacity:0; stroke-width: 2; stroke: #000000" cx="466.795" cy="176.411" rx="35.4" ry="18"/>
    <text font-size="12.8" style="fill: #000000;text-anchor:middle;font-family:monospace;font-style:normal;font-weight:normal" x="466.795" y="180.411">Date</text>
  </g>
  <g>
    <ellipse style="fill: #ffffff" cx="545.857" cy="176.411" rx="35.4" ry="18"/>
    <ellipse style="fill: none; fill-opacity:0; stroke-width: 2; stroke: #000000" cx="545.857" cy="176.411" rx="35.4" ry="18"/>
    <text font-size="12.8" style="fill: #000000;text-anchor:middle;font-family:monospace;font-style:normal;font-weight:normal" x="545.857" y="180.411">Time</text>
  </g>
  <polyline style="fill: none; fill-opacity:0; stroke-width: 2; stroke: #000000" points="466.795,195.42 466.795,228.78 503.1,228.78 503.1,262.14 "/>
  <polyline style="fill: none; fill-opacity:0; stroke-width: 2; stroke: #000000" points="545.857,195.42 545.857,228.277 503.1,228.277 503.1,261.133 "/>
  <polyline style="fill: none; fill-opacity:0; stroke-width: 2; stroke: #000000" points="281.807,262.204 300.401,262.204 300.401,288 318.995,288 "/>
  <polyline style="fill: none; fill-opacity:0; stroke-width: 2; stroke: #000000" points="281.905,309.5 300.45,309.5 300.45,288 318.995,288 "/>
  <g>
    <ellipse style="fill: #ffffff" cx="615.212" cy="200.073" rx="43.1" ry="18"/>
    <ellipse style="fill: none; fill-opacity:0; stroke-width: 2; stroke: #000000" cx="615.212" cy="200.073" rx="43.1" ry="18"/>
    <text font-size="12.8" style="fill: #000000;text-anchor:middle;font-family:monospace;font-style:normal;font-weight:normal" x="615.212" y="204.073">Result</text>
  </g>
  <polyline style="fill: none; fill-opacity:0; stroke-width: 2; stroke: #000000" points="615.212,219.083 615.212,240.611 503.1,240.611 503.1,262.14 "/>
  <g>
    <ellipse style="fill: #ffffff" cx="765.4" cy="312.114" rx="35.4" ry="18"/>
    <ellipse style="fill: none; fill-opacity:0; stroke-width: 2; stroke: #000000" cx="765.4" cy="312.114" rx="35.4" ry="18"/>
    <text font-size="12.8" style="fill: #000000;text-anchor:middle;font-family:monospace;font-style:normal;font-weight:normal" x="765.4" y="316.114">Name</text>
  </g>
  <polyline style="fill: none; fill-opacity:0; stroke-width: 2; stroke: #000000" points="730,312.114 704.904,312.114 704.904,288 679.807,288 "/>
  <g>
    <ellipse style="fill: #ffffff" cx="407.7" cy="200.073" rx="27.7" ry="18"/>
    <ellipse style="fill: none; fill-opacity:0; stroke-width: 2; stroke: #000000" cx="407.7" cy="200.073" rx="27.7" ry="18"/>
    <text font-size="12.8" style="fill: #000000;text-anchor:middle;font-family:monospace;font-style:normal;font-weight:normal" x="407.7" y="204.073">ID</text>
    <line style="fill: none; fill-opacity:0; stroke-width: 2; stroke: #000000" x1="400" y1="208.073" x2="415.4" y2="208.073"/>
  </g>
  <polyline style="fill: none; fill-opacity:0; stroke-width: 2; stroke: #000000" points="407.7,219.083 407.7,240.611 503.1,240.611 503.1,262.14 "/>
  <g>
    <ellipse style="fill: #ffffff" cx="757.7" cy="268" rx="27.7" ry="18"/>
    <ellipse style="fill: none; fill-opacity:0; stroke-width: 2; stroke: #000000" cx="757.7" cy="268" rx="27.7" ry="18"/>
    <text font-size="12.7998" style="fill: #000000;text-anchor:middle;font-family:monospace;font-style:normal;font-weight:normal" x="757.7" y="272">ID</text>
    <line style="fill: none; fill-opacity:0; stroke-width: 2; stroke: #000000" x1="750" y1="276" x2="765.4" y2="276"/>
  </g>
  <polyline style="fill: none; fill-opacity:0; stroke-width: 2; stroke: #000000" points="730,268 704.904,268 704.904,288 679.807,288 "/>
</svg>
